<?xml version="1.0" encoding="utf-8"?>
<!-- Generator: Adobe Illustrator 25.2.1, SVG Export Plug-In . SVG Version: 6.00 Build 0)  -->
<svg version="1.1" id="Capa_1" xmlns="http://www.w3.org/2000/svg" xmlns:xlink="http://www.w3.org/1999/xlink" x="0px" y="0px"
	 viewBox="0 0 425.2 425.2" style="enable-background:new 0 0 425.2 425.2;" xml:space="preserve">
<style type="text/css">
	.st0{display:none;fill:#FFFFFF;stroke:#1A171B;stroke-miterlimit:10;}
	.st1{fill:#FFEC00;}
	.st2{fill:#E1007A;}
	.st3{fill:#009DDF;}
	.st4{fill:#1A171B;}
	.st5{fill:#FFFFFF;}
</style>
<circle class="st0" cx="141.73" cy="559.85" r="141.73"/>
<g>
	<circle class="st4" cx="212.6" cy="212.6" r="184.25"/>
	<g>
		<g>
			<g>
				<g>
					<g>
						<path class="st5" d="M240.58,292.38c-2.01-2.59-4.02-5.18-6.04-7.77c-3.26-4.18-6.52-8.35-9.79-12.52
							c-0.18-0.23-0.37-0.45-0.62-0.75c-6.01,4.8-11.99,9.57-18.07,14.42c-2.01-2.84-3.98-5.64-6-8.5c3.99-3.07,7.92-6.09,11.96-9.2
							c-0.31-0.11-0.47-0.2-0.64-0.21c-4.91-0.55-9.81-1.08-14.72-1.63c-2.23-0.25-4.45-0.49-6.68-0.77
							c-2.85-0.35-4.33-1.61-4.98-4.43c-0.66-2.88-1.19-5.79-1.76-8.68c-1.65-8.31-3.29-16.62-4.94-24.93
							c-1.66-8.41-3.33-16.81-5-25.22c-1.8-9.08-3.6-18.15-5.4-27.23c-1.98-10-3.95-20-5.93-30c-1.26-6.34-2.53-12.67-3.78-19.01
							c-0.23-1.18-0.44-2.36-0.6-3.55c-0.17-1.29,0.06-2.53,0.64-3.69c0.73-1.46,1.94-2.23,3.54-2.41c1.36-0.15,2.64,0.12,3.88,0.69
							c5.42,2.51,10.86,4.97,16.29,7.48c36.66,16.95,73.32,33.91,109.98,50.88c0.62,0.29,1.22,0.61,1.81,0.94
							c1.75,0.99,2.6,2.51,2.53,4.5c-0.05,1.33-0.2,2.65-0.35,3.98c-0.45,4.07-0.92,8.13-1.39,12.2c-0.22,1.94-0.46,3.87-0.69,5.8
							c-0.02,0.18,0,0.36,0,0.74c3.99-3.21,7.85-6.31,11.77-9.46c2.08,2.71,4.12,5.36,6.25,8.12c-5.32,4.11-10.6,8.19-15.97,12.33
							c5.67,7.15,11.31,14.27,17.02,21.48c-2.86,2.18-5.62,4.28-8.48,6.46c-5.45-7.03-10.86-14.03-16.33-21.09
							c-8.24,6.49-16.43,12.93-24.68,19.43c5.55,6.96,11.06,13.86,16.63,20.84c-2.75,2.21-5.45,4.38-8.26,6.63
							c-1.86-2.32-3.64-4.66-5.46-6.97c-1.84-2.35-3.68-4.71-5.52-7.07c-1.82-2.33-3.64-4.65-5.51-7.05
							c-7.68,6.05-15.3,12.06-23,18.13c5.51,6.94,10.98,13.82,16.52,20.79c-0.29,0.24-0.55,0.46-0.83,0.67
							c-2.17,1.66-4.34,3.31-6.51,4.97c-0.25,0.19-0.48,0.42-0.72,0.63C240.71,292.38,240.64,292.38,240.58,292.38z M285.74,183.85
							c-35.08-16.24-70.07-32.43-105.05-48.62c-0.04,0.06-0.07,0.11-0.11,0.17c14.86,18.89,29.72,37.77,44.55,56.63
							c12.01-4.74,23,1.77,27,9.88c4.4,8.91,2.17,19.61-5.52,25.83c-7.67,6.2-18.8,6.17-26.49-0.1c-3.76-3.07-6.21-6.98-7.2-11.73
							c-1.29-6.17-0.01-11.86,3.61-17.06c-14.68-18.68-29.33-37.33-43.99-55.97c-0.12-0.15-0.26-0.29-0.39-0.43
							c-0.02-0.02-0.06-0.02-0.09-0.02c-0.02,0-0.04,0.03-0.08,0.08c7.45,37.7,14.91,75.43,22.36,113.13
							c4.94,0.56,9.74,1.1,14.55,1.64c4.45,0.5,8.91,0.99,13.36,1.52c0.73,0.09,1.28-0.06,1.87-0.52
							c15.62-12.3,31.26-24.59,46.89-36.88c3.58-2.81,7.14-5.64,10.71-8.45c0.36-0.28,0.7-0.54,0.76-1.07
							c0.45-3.94,0.92-7.87,1.38-11.81c0.43-3.71,0.87-7.42,1.3-11.13C285.35,187.27,285.54,185.59,285.74,183.85z M233.27,222.05
							c5.99,0.09,10.74-4.55,10.82-10.57c0.08-5.76-4.58-10.59-10.24-10.78c-5.83-0.2-11.05,4.3-11.11,10.58
							C222.68,217.21,227.33,221.96,233.27,222.05z"/>
					</g>
				</g>
				<g>
					<path class="st5" d="M205.48,81.61c0.35,0.06,0.69,0.15,1.04,0.17c23.5,1.57,43.55,10.64,59.99,27.57
						c0.36,0.37,0.73,0.73,1.15,1.16c0.43-0.34,0.85-0.69,1.28-1.02c1.13-0.87,2.36-1.48,3.81-1.59c1.53-0.12,2.9,0.28,4.1,1.22
						c0.51,0.4,1,0.85,1.4,1.35c2.87,3.61,5.74,7.23,8.56,10.87c1.46,1.89,1.76,4.01,0.92,6.26c-0.41,1.09-1.12,1.97-2.03,2.69
						c-3.63,2.85-7.24,5.72-10.89,8.54c-2.92,2.26-6.72,1.82-9.03-1.06c-2.87-3.57-5.71-7.17-8.51-10.79
						c-2.33-3.01-1.85-6.79,1.08-9.2c0.32-0.26,0.65-0.53,1.04-0.85c-0.34-0.37-0.63-0.71-0.94-1.02
						c-7.26-7.36-15.46-13.38-24.94-17.58c-6.49-2.87-13.25-4.74-20.29-5.65c-5.76-0.74-11.53-0.77-17.31-0.37
						c-7.19,0.5-14.24,1.76-21.09,4.01c-15.09,4.97-27.1,14.08-36.23,27.01c-6.56,9.3-11.38,19.42-14.09,30.51
						c-1.85,7.57-2.47,15.25-1.81,23.02c0.83,9.85,3.58,19.19,7.87,28.07c1.38,2.86,2.98,5.62,4.48,8.43
						c0.17,0.31,0.37,0.6,0.61,1.01c0.35-0.29,0.65-0.51,0.93-0.77c2.6-2.47,7.17-2.04,9.41,0.92c2.75,3.66,5.63,7.23,8.47,10.82
						c1.59,2.01,1.7,4.21,0.88,6.53c-0.35,0.97-1,1.73-1.81,2.37c-3.71,2.9-7.45,5.77-11.1,8.75c-2.68,2.19-6.98,1.49-8.91-1.03
						c-2.04-2.65-4.14-5.26-6.21-7.89c-0.84-1.07-1.69-2.14-2.52-3.22c-2.09-2.71-1.61-6.69,1.05-8.83c0.53-0.43,1.08-0.82,1.71-1.3
						c-0.21-0.34-0.4-0.66-0.61-0.98c-5.16-8.15-9.14-16.83-11.62-26.16c-1.41-5.29-2.32-10.66-2.67-16.12
						c-0.04-0.63-0.23-1.25-0.34-1.88c0-2.73,0-5.46,0-8.19c0.11-0.6,0.3-1.19,0.33-1.79c0.25-4.12,0.82-8.2,1.62-12.25
						c1.64-8.36,4.34-16.36,8.27-23.94c5.48-10.56,12.91-19.54,22.05-27.11c15.07-12.47,32.36-19.34,51.9-20.54
						c0.28-0.02,0.56-0.11,0.84-0.17C200.02,81.61,202.75,81.61,205.48,81.61z M135.51,227.88c1.19,1.5,2.32,2.91,3.43,4.3
						c1.11-0.61,4.17-3.05,4.61-3.67c-1.09-1.41-2.19-2.83-3.32-4.29C138.63,225.47,137.12,226.63,135.51,227.88z M267.96,123.66
						c1.19,1.54,2.33,3.01,3.5,4.53c1.56-1.23,3.04-2.38,4.59-3.6c-1.17-1.51-2.31-2.98-3.48-4.49
						C270.99,121.33,269.51,122.47,267.96,123.66z"/>
				</g>
			</g>
		</g>
		<g>
			<circle class="st3" cx="166.8" cy="327.91" r="15.68"/>
			<circle class="st2" cx="212.6" cy="327.91" r="15.68"/>
			<circle class="st1" cx="258.4" cy="327.91" r="15.68"/>
		</g>
	</g>
</g>
</svg>
