<?xml version="1.0" encoding="utf-8"?>
<!-- Generator: Adobe Illustrator 25.2.1, SVG Export Plug-In . SVG Version: 6.00 Build 0)  -->
<svg version="1.1" id="Capa_1" xmlns="http://www.w3.org/2000/svg" xmlns:xlink="http://www.w3.org/1999/xlink" x="0px" y="0px"
	 viewBox="0 0 850.39 850.39" style="enable-background:new 0 0 850.39 850.39;" xml:space="preserve">
<style type="text/css">
	.st0{fill:#FFFFFF;}
	.st1{fill:#1D1D1B;}
	.st2{fill:#80A5D7;}
	.st3{fill-rule:evenodd;clip-rule:evenodd;fill:#FFFFFF;}
	.st4{fill-rule:evenodd;clip-rule:evenodd;fill:#1D1D1B;}
</style>
<g>
	<g>
		<path class="st0" d="M168.28,289.8H669c11.9,0,21.54,9.64,21.54,21.54v363.54c0,11.9-9.64,21.54-21.54,21.54H168.28
			c-11.9,0-21.54-9.64-21.54-21.54V311.35C146.74,299.45,156.38,289.8,168.28,289.8z"/>
		<path class="st1" d="M669,698.04H168.28c-12.77,0-23.16-10.39-23.16-23.16V311.35c0-12.77,10.39-23.16,23.16-23.16H669
			c12.77,0,23.16,10.39,23.16,23.16v363.54C692.16,687.65,681.77,698.04,669,698.04z M168.28,291.42
			c-10.99,0-19.93,8.94-19.93,19.93v363.54c0,10.99,8.94,19.93,19.93,19.93H669c10.99,0,19.93-8.94,19.93-19.93V311.35
			c0-10.99-8.94-19.93-19.93-19.93H168.28z"/>
	</g>
	<g>
		<path class="st1" d="M662.72,286.75H173.96c-15.14,0-26.92,117.17-26.92,132.31L414.7,696.42h248.02
			c15.19-0.04,27.49-12.34,27.53-27.53V314.27C690.2,299.09,677.9,286.79,662.72,286.75z"/>
	</g>
	<g>
		<path class="st1" d="M270.91,357.9h155.37V153.98H294.17L270.91,357.9z"/>
	</g>
	<g>
		<path class="st0" d="M581.65,357.9H426.28V153.98h132.11L581.65,357.9z M690.54,192.63l0.19,0.7
			C690.69,193.08,690.59,192.85,690.54,192.63z"/>
		<path class="st1" d="M583.46,359.51h-158.8V152.36h135.17L583.46,359.51z M427.9,356.28h151.95l-22.9-200.69H427.9V356.28z
			 M689.18,193.76l-0.13-0.48c-0.03-0.09-0.05-0.18-0.08-0.28l3.13-0.8l0.05,0.19c0.01,0.02,0.01,0.03,0.02,0.05
			c0.05,0.16,0.11,0.35,0.15,0.58L689.18,193.76z"/>
	</g>
	<g>
		<path class="st1" d="M690.73,193.32l-0.19-0.7c-4.93-22.56-24.89-38.64-47.98-38.66h-84.18l23.25,203.93h155.37L690.73,193.32z"/>
	</g>
	<g>
		<path class="st2" d="M162.02,192.63l-0.19,0.7C161.87,193.08,161.97,192.85,162.02,192.63z"/>
	</g>
	<g>
		<path class="st0" d="M161.82,193.32l0.19-0.7c4.93-22.56,24.89-38.64,47.98-38.66h84.18L270.89,357.9H115.52L161.82,193.32z"/>
		<path class="st1" d="M272.33,359.51H113.39l47.06-167.28c2.47-11.25,8.76-21.42,17.73-28.65c8.98-7.24,20.28-11.23,31.81-11.23
			h85.99L272.33,359.51z M117.65,356.28h151.8l22.91-200.7h-82.37c-22.16,0.01-41.67,15.74-46.4,37.38l-0.02,0.09l-0.19,0.7
			L117.65,356.28z"/>
	</g>
	<g>
		<path class="st3" d="M271.17,357.85c0,42.88-34.76,77.64-77.64,77.64s-77.64-34.76-77.64-77.64H271.17z"/>
		<path class="st1" d="M193.53,437.1c-21.17,0-41.07-8.24-56.04-23.21c-14.97-14.97-23.21-34.87-23.21-56.04v-1.62h158.52v1.62
			c0,21.17-8.24,41.07-23.21,56.04C234.6,428.86,214.7,437.1,193.53,437.1z M117.52,359.46c0.86,41.18,34.63,74.41,76.01,74.41
			s75.15-33.23,76.01-74.41H117.52z"/>
	</g>
	<g>
		<path class="st4" d="M426.46,357.85c0,42.88-34.76,77.64-77.64,77.64s-77.64-34.76-77.64-77.64H426.46z"/>
	</g>
	<g>
		<path class="st3" d="M581.74,357.85c0,42.88-34.76,77.64-77.64,77.64c-42.88,0-77.64-34.76-77.64-77.64H581.74z"/>
		<path class="st1" d="M504.1,437.1c-21.17,0-41.07-8.24-56.04-23.21c-14.97-14.97-23.21-34.87-23.21-56.04v-1.62h158.52v1.62
			c0,21.17-8.24,41.07-23.21,56.04C545.17,428.86,525.27,437.1,504.1,437.1z M428.09,359.46c0.86,41.18,34.63,74.41,76.01,74.41
			s75.15-33.23,76.01-74.41H428.09z"/>
	</g>
	<g>
		<path class="st4" d="M737.01,357.85c0,42.88-34.76,77.64-77.64,77.64s-77.64-34.76-77.64-77.64H737.01z"/>
	</g>
	<g>
		<path class="st0" d="M659.37,568.2c-0.27-3.7-0.73-7.07-1.38-11.38h-84.7c0,11.85,0,24.77-0.05,36.62h49.06
			c-2.11,11.16-8.57,21.01-17.96,27.39c0,0,0-0.2-0.04-0.21c-6.01,3.94-12.77,6.58-19.86,7.75c-7.11,1.3-14.39,1.27-21.49-0.09
			c-7.2-1.49-14.03-4.45-20.04-8.69c-8.88-6.3-15.72-15.04-19.7-25.17c-0.3-0.79-0.58-1.58-0.87-2.39v-0.09l0.08-0.06
			c-3.86-11.33-3.87-23.62-0.03-34.95c2.71-7.95,7.16-15.2,13.03-21.2c13.78-14.25,34.36-19.61,53.34-13.89
			c7.28,2.23,13.93,6.15,19.41,11.43l16.55-16.55c2.92-2.95,5.95-5.81,8.76-8.86c-8.39-7.83-18.25-13.93-29-17.96
			c-19.56-7.09-40.96-7.28-60.65-0.53c-0.69,0.23-1.37,0.48-2.04,0.73c-21.24,7.98-38.71,23.64-48.96,43.88
			c-3.62,7.16-6.26,14.78-7.84,22.65c-9.38,46.6,19.06,92.46,64.96,104.79c15.01,4.02,30.96,3.92,46.08,0.48
			c13.74-3.1,26.44-9.7,36.88-19.16c10.89-10.02,18.69-23.36,22.78-37.54C659.13,593.18,660.37,580.65,659.37,568.2L659.37,568.2z"
			/>
	</g>
</g>
</svg>
