<?xml version="1.0" encoding="utf-8"?>
<!-- Generator: Adobe Illustrator 25.2.1, SVG Export Plug-In . SVG Version: 6.00 Build 0)  -->
<svg version="1.1" id="Capa_1" xmlns="http://www.w3.org/2000/svg" xmlns:xlink="http://www.w3.org/1999/xlink" x="0px" y="0px"
	 viewBox="0 0 425.2 425.2" style="enable-background:new 0 0 425.2 425.2;" xml:space="preserve">
<style type="text/css">
	.st0{display:none;fill:#FFFFFF;stroke:#1A171B;stroke-miterlimit:10;}
	.st1{fill:#FFEC00;}
	.st2{fill:#E1007A;}
	.st3{fill:#009DDF;}
	.st4{fill:#1A171B;}
	.st5{fill:#FFFFFF;}
</style>
<circle class="st0" cx="141.73" cy="559.85" r="141.73"/>
<g>
	<circle class="st4" cx="212.6" cy="212.6" r="170.08"/>
	<g>
		<g>
			<g>
				<path class="st5" d="M149.99,152.59c2.59,1.47,4.64,3.59,6.15,6.35c1.52,2.76,2.28,5.95,2.28,9.58c0,3.63-0.76,6.84-2.28,9.62
					c-1.52,2.78-3.57,4.9-6.15,6.38c-2.59,1.47-5.42,2.21-8.49,2.21c-4.32,0-7.52-1.17-9.62-3.53v2.88H118.1v-47.56h14.49v14.87
					c2.05-2.01,5.02-3.01,8.91-3.01C144.57,150.38,147.4,151.12,149.99,152.59z M142.14,173.62c1.07-1.22,1.6-2.92,1.6-5.1
					c0-2.18-0.54-3.87-1.6-5.06c-1.07-1.2-2.44-1.79-4.1-1.79c-1.67,0-3.03,0.6-4.1,1.79c-1.07,1.2-1.6,2.88-1.6,5.06
					c0,2.18,0.53,3.88,1.6,5.1c1.07,1.22,2.44,1.83,4.1,1.83C139.7,175.44,141.07,174.83,142.14,173.62z"/>
				<path class="st5" d="M201.04,151.02l-14.42,35.77c-1.84,4.57-4.12,7.78-6.86,9.62c-2.74,1.84-6.09,2.76-10.06,2.76
					c-1.97,0-3.94-0.29-5.93-0.87c-1.99-0.58-3.56-1.34-4.71-2.28l4.81-9.94c0.73,0.55,1.55,1,2.47,1.35
					c0.92,0.34,1.8,0.51,2.66,0.51c1.58,0,2.78-0.47,3.59-1.41l-14.74-35.51h14.87l7.24,18.78l7.37-18.78H201.04z"/>
			</g>
			<g>
				<path class="st5" d="M149.29,235.13v16.28h-15.13v-16.47l-16.92-28.4h15.96l9.17,15.51l9.23-15.51h14.61L149.29,235.13z"/>
				<path class="st5" d="M200.95,237.25h-24.36c0.51,1.32,1.37,2.34,2.56,3.04c1.2,0.71,2.69,1.06,4.49,1.06
					c1.54,0,2.83-0.19,3.88-0.58c1.05-0.38,2.19-1.05,3.43-1.99l7.56,7.63c-3.42,3.76-8.53,5.64-15.32,5.64
					c-4.23,0-7.95-0.78-11.15-2.34c-3.2-1.56-5.68-3.73-7.44-6.51c-1.75-2.78-2.63-5.9-2.63-9.36c0-3.5,0.86-6.63,2.6-9.39
					c1.73-2.76,4.1-4.9,7.12-6.44c3.01-1.54,6.4-2.31,10.16-2.31c3.55,0,6.78,0.7,9.71,2.12c2.93,1.41,5.26,3.48,6.99,6.22
					c1.73,2.74,2.6,6,2.6,9.81C201.14,234.07,201.08,235.2,200.95,237.25z M178.26,226.8c-0.98,0.81-1.62,1.97-1.92,3.46h11.28
					c-0.3-1.45-0.94-2.6-1.92-3.43c-0.98-0.83-2.22-1.25-3.72-1.25C180.48,225.58,179.24,225.99,178.26,226.8z"/>
				<path class="st5" d="M231.53,250.2c-2.18,1.24-5.15,1.86-8.91,1.86c-4.91,0-8.7-1.19-11.35-3.56
					c-2.65-2.37-3.97-5.93-3.97-10.67v-8.97h-4.81v-10.58h4.81v-9.81h14.49v9.81h7.18v10.58h-7.18v8.85c0,1.07,0.28,1.9,0.83,2.5
					c0.55,0.6,1.28,0.9,2.18,0.9c1.24,0,2.33-0.32,3.27-0.96L231.53,250.2z"/>
				<path class="st5" d="M267.36,240.84v10.58H233.9v-8.33l14.49-16.15h-13.97v-10.58h32.24v8.33l-14.49,16.15H267.36z"/>
				<path class="st5" d="M272.65,211.45c-1.6-1.39-2.4-3.15-2.4-5.29c0-2.14,0.8-3.9,2.4-5.29c1.6-1.39,3.71-2.08,6.31-2.08
					c2.65,0,4.76,0.66,6.35,1.99c1.58,1.33,2.37,3.03,2.37,5.13c0,2.22-0.79,4.05-2.37,5.48c-1.58,1.43-3.7,2.15-6.35,2.15
					C276.35,213.53,274.25,212.84,272.65,211.45z M271.72,216.35h14.49v35.06h-14.49V216.35z"/>
				<path class="st5" d="M293.54,211.45c-1.6-1.39-2.4-3.15-2.4-5.29c0-2.14,0.8-3.9,2.4-5.29c1.6-1.39,3.71-2.08,6.31-2.08
					c2.65,0,4.76,0.66,6.35,1.99c1.58,1.33,2.37,3.03,2.37,5.13c0,2.22-0.79,4.05-2.37,5.48c-1.58,1.43-3.7,2.15-6.35,2.15
					C297.25,213.53,295.15,212.84,293.54,211.45z M292.61,216.35h14.49v35.06h-14.49V216.35z"/>
			</g>
			<g>
				<path class="st5" d="M134.08,280.16h5.7v9.44c-1.3,0.93-2.8,1.65-4.49,2.15c-1.69,0.5-3.38,0.75-5.08,0.75
					c-2.39,0-4.54-0.5-6.44-1.51c-1.91-1.01-3.41-2.41-4.49-4.21c-1.09-1.8-1.63-3.84-1.63-6.12c0-2.28,0.54-4.32,1.63-6.12
					c1.08-1.8,2.59-3.21,4.52-4.21c1.93-1.01,4.11-1.51,6.54-1.51c2.13,0,4.03,0.36,5.73,1.07c1.69,0.72,3.1,1.75,4.23,3.09
					l-4.1,3.71c-1.54-1.69-3.38-2.54-5.53-2.54c-1.95,0-3.52,0.59-4.72,1.77c-1.19,1.18-1.79,2.76-1.79,4.73
					c0,1.26,0.27,2.38,0.81,3.37c0.54,0.99,1.3,1.76,2.28,2.31c0.98,0.55,2.09,0.83,3.35,0.83c1.24,0,2.4-0.25,3.48-0.75V280.16z"/>
				<path class="st5" d="M148.87,290.96c-1.92-1.02-3.43-2.43-4.52-4.23c-1.1-1.8-1.64-3.83-1.64-6.09c0-2.26,0.55-4.28,1.64-6.09
					c1.09-1.8,2.6-3.21,4.52-4.23c1.92-1.02,4.08-1.53,6.49-1.53s4.57,0.51,6.49,1.53c1.92,1.02,3.43,2.43,4.52,4.23
					c1.1,1.8,1.64,3.83,1.64,6.09c0,2.26-0.55,4.28-1.64,6.09c-1.1,1.8-2.6,3.21-4.52,4.23c-1.92,1.02-4.08,1.53-6.49,1.53
					S150.79,291.98,148.87,290.96z M158.48,286.34c0.93-0.54,1.67-1.31,2.21-2.29s0.81-2.12,0.81-3.4s-0.27-2.41-0.81-3.4
					s-1.28-1.75-2.21-2.29c-0.93-0.54-1.97-0.81-3.12-0.81c-1.15,0-2.19,0.27-3.12,0.81c-0.93,0.54-1.67,1.31-2.21,2.29
					c-0.54,0.99-0.81,2.12-0.81,3.4s0.27,2.41,0.81,3.4c0.54,0.99,1.28,1.75,2.21,2.29c0.93,0.54,1.97,0.81,3.12,0.81
					C156.51,287.16,157.55,286.88,158.48,286.34z"/>
				<path class="st5" d="M193.08,269.26v22.78h-5.31l-10.06-12.14v12.14h-6.31v-22.78h5.31l10.06,12.14v-12.14H193.08z"/>
				<path class="st5" d="M216.9,286.93v5.11h-20.4V288l11.49-13.64h-11.19v-5.11h19.62v4.04l-11.49,13.64H216.9z"/>
				<path class="st5" d="M234.99,287.61h-9.63l-1.79,4.43H217l10.06-22.78h6.35l10.09,22.78h-6.7L234.99,287.61z M231.41,262.46
					h6.18l-6.12,4.95h-4.43L231.41,262.46z M233.11,282.86l-2.93-7.29l-2.93,7.29H233.11z"/>
				<path class="st5" d="M245.31,269.26h6.44v17.67h10.87v5.11h-17.31V269.26z"/>
				<path class="st5" d="M283.45,287.06v4.98h-18.29v-22.78h17.87v4.98h-11.49v3.84h10.12v4.82h-10.12v4.17H283.45z"/>
				<path class="st5" d="M306.3,286.93v5.11h-20.4V288l11.49-13.64h-11.19v-5.11h19.62v4.04l-11.49,13.64H306.3z"/>
			</g>
			<g>
				<g>
					<g>
						<path class="st5" d="M276.13,188.18c-0.92-1.19-1.84-2.37-2.76-3.56c-1.49-1.91-2.99-3.82-4.48-5.73
							c-0.08-0.1-0.17-0.2-0.29-0.34c-2.75,2.2-5.49,4.38-8.27,6.6c-0.92-1.3-1.82-2.58-2.75-3.89c1.83-1.41,3.63-2.79,5.48-4.21
							c-0.14-0.05-0.22-0.09-0.29-0.1c-2.25-0.25-4.49-0.5-6.74-0.74c-1.02-0.11-2.04-0.23-3.06-0.35
							c-1.31-0.16-1.98-0.74-2.28-2.03c-0.3-1.32-0.54-2.65-0.81-3.98c-0.75-3.8-1.51-7.61-2.26-11.42
							c-0.76-3.85-1.53-7.7-2.29-11.55c-0.82-4.15-1.65-8.31-2.47-12.46c-0.91-4.58-1.81-9.16-2.71-13.73
							c-0.57-2.9-1.16-5.8-1.73-8.7c-0.11-0.54-0.2-1.08-0.28-1.63c-0.08-0.59,0.03-1.16,0.29-1.69c0.33-0.67,0.89-1.02,1.62-1.1
							c0.62-0.07,1.21,0.05,1.78,0.32c2.48,1.15,4.97,2.28,7.46,3.43c16.79,7.76,33.57,15.53,50.35,23.29
							c0.28,0.13,0.56,0.28,0.83,0.43c0.8,0.45,1.19,1.15,1.16,2.06c-0.02,0.61-0.09,1.22-0.16,1.82c-0.21,1.86-0.42,3.72-0.64,5.58
							c-0.1,0.89-0.21,1.77-0.31,2.66c-0.01,0.08,0,0.17,0,0.34c1.83-1.47,3.6-2.89,5.39-4.33c0.95,1.24,1.89,2.45,2.86,3.72
							c-2.44,1.88-4.86,3.75-7.31,5.65c2.6,3.28,5.18,6.53,7.79,9.84c-1.31,1-2.57,1.96-3.88,2.96c-2.49-3.22-4.97-6.42-7.48-9.66
							c-3.77,2.97-7.52,5.92-11.3,8.89c2.54,3.19,5.06,6.34,7.61,9.54c-1.26,1.01-2.5,2-3.78,3.04c-0.85-1.06-1.67-2.13-2.5-3.19
							c-0.84-1.08-1.68-2.16-2.53-3.24c-0.83-1.07-1.66-2.13-2.52-3.23c-3.51,2.77-7,5.52-10.53,8.3c2.52,3.18,5.03,6.33,7.56,9.52
							c-0.13,0.11-0.25,0.21-0.38,0.31c-0.99,0.76-1.99,1.52-2.98,2.27c-0.12,0.09-0.22,0.19-0.33,0.29
							C276.19,188.18,276.16,188.18,276.13,188.18z M296.8,138.49c-16.06-7.43-32.08-14.85-48.1-22.26
							c-0.02,0.03-0.03,0.05-0.05,0.08c6.8,8.65,13.61,17.29,20.4,25.93c5.5-2.17,10.53,0.81,12.36,4.52
							c2.01,4.08,0.99,8.98-2.53,11.82c-3.51,2.84-8.61,2.82-12.13-0.05c-1.72-1.4-2.84-3.2-3.3-5.37c-0.59-2.83,0-5.43,1.65-7.81
							c-6.72-8.55-13.43-17.09-20.14-25.63c-0.05-0.07-0.12-0.13-0.18-0.2c-0.01-0.01-0.03-0.01-0.04-0.01
							c-0.01,0-0.02,0.01-0.04,0.03c3.41,17.26,6.82,34.53,10.24,51.8c2.26,0.26,4.46,0.5,6.66,0.75c2.04,0.23,4.08,0.45,6.12,0.69
							c0.33,0.04,0.59-0.03,0.85-0.24c7.15-5.63,14.31-11.26,21.47-16.88c1.64-1.29,3.27-2.58,4.91-3.87
							c0.16-0.13,0.32-0.25,0.35-0.49c0.2-1.8,0.42-3.6,0.63-5.4c0.2-1.7,0.4-3.4,0.59-5.09
							C296.62,140.06,296.71,139.29,296.8,138.49z M272.78,155.98c2.74,0.04,4.92-2.08,4.95-4.84c0.04-2.64-2.1-4.85-4.69-4.93
							c-2.67-0.09-5.06,1.97-5.09,4.85C267.93,153.77,270.06,155.94,272.78,155.98z"/>
					</g>
				</g>
				<g>
					<path class="st5" d="M260.06,91.68c0.16,0.03,0.32,0.07,0.47,0.08c10.76,0.72,19.94,4.87,27.47,12.62
						c0.16,0.17,0.33,0.34,0.53,0.53c0.2-0.16,0.39-0.32,0.59-0.47c0.52-0.4,1.08-0.68,1.74-0.73c0.7-0.05,1.33,0.13,1.88,0.56
						c0.23,0.18,0.46,0.39,0.64,0.62c1.31,1.65,2.63,3.31,3.92,4.98c0.67,0.86,0.8,1.84,0.42,2.87c-0.19,0.5-0.51,0.9-0.93,1.23
						c-1.66,1.3-3.32,2.62-4.99,3.91c-1.34,1.03-3.08,0.83-4.13-0.49c-1.31-1.64-2.61-3.28-3.89-4.94c-1.06-1.38-0.85-3.11,0.5-4.21
						c0.15-0.12,0.3-0.24,0.47-0.39c-0.16-0.17-0.29-0.32-0.43-0.47c-3.32-3.37-7.08-6.12-11.42-8.05
						c-2.97-1.32-6.07-2.17-9.29-2.58c-2.64-0.34-5.28-0.35-7.93-0.17c-3.29,0.23-6.52,0.8-9.66,1.84
						c-6.91,2.27-12.41,6.45-16.59,12.37c-3,4.26-5.21,8.89-6.45,13.97c-0.85,3.47-1.13,6.98-0.83,10.54
						c0.38,4.51,1.64,8.79,3.6,12.85c0.63,1.31,1.36,2.57,2.05,3.86c0.08,0.14,0.17,0.28,0.28,0.46c0.16-0.13,0.3-0.23,0.42-0.35
						c1.19-1.13,3.28-0.94,4.31,0.42c1.26,1.68,2.58,3.31,3.88,4.96c0.73,0.92,0.78,1.93,0.4,2.99c-0.16,0.44-0.46,0.79-0.83,1.09
						c-1.7,1.33-3.41,2.64-5.08,4c-1.23,1-3.19,0.68-4.08-0.47c-0.94-1.21-1.9-2.41-2.84-3.61c-0.39-0.49-0.77-0.98-1.15-1.48
						c-0.95-1.24-0.74-3.06,0.48-4.04c0.24-0.19,0.5-0.38,0.78-0.59c-0.1-0.16-0.18-0.3-0.28-0.45c-2.36-3.73-4.18-7.7-5.32-11.98
						c-0.64-2.42-1.06-4.88-1.22-7.38c-0.02-0.29-0.1-0.57-0.16-0.86c0-1.25,0-2.5,0-3.75c0.05-0.27,0.14-0.54,0.15-0.82
						c0.12-1.89,0.38-3.76,0.74-5.61c0.75-3.83,1.99-7.49,3.79-10.96c2.51-4.83,5.91-8.95,10.1-12.41c6.9-5.71,14.82-8.86,23.76-9.4
						c0.13-0.01,0.26-0.05,0.38-0.08C257.56,91.68,258.81,91.68,260.06,91.68z M228.02,158.65c0.55,0.68,1.06,1.33,1.57,1.97
						c0.51-0.28,1.91-1.4,2.11-1.68c-0.5-0.64-1-1.29-1.52-1.96C229.45,157.55,228.76,158.08,228.02,158.65z M288.66,110.94
						c0.55,0.71,1.07,1.38,1.6,2.07c0.72-0.56,1.39-1.09,2.1-1.65c-0.54-0.69-1.06-1.36-1.59-2.06
						C290.05,109.87,289.37,110.39,288.66,110.94z"/>
				</g>
			</g>
		</g>
		<g>
			<circle class="st3" cx="170.32" cy="319.04" r="14.47"/>
			<circle class="st2" cx="212.6" cy="319.04" r="14.47"/>
			<circle class="st1" cx="254.88" cy="319.04" r="14.47"/>
		</g>
	</g>
</g>
</svg>
