<?xml version="1.0" encoding="utf-8"?>
<!-- Generator: Adobe Illustrator 25.2.1, SVG Export Plug-In . SVG Version: 6.00 Build 0)  -->
<svg version="1.1" id="Capa_1" xmlns="http://www.w3.org/2000/svg" xmlns:xlink="http://www.w3.org/1999/xlink" x="0px" y="0px"
	 viewBox="0 0 141.73 141.73" style="enable-background:new 0 0 141.73 141.73;" xml:space="preserve">
<style type="text/css">
	.st0{display:none;fill:#FFFFFF;stroke:#1A171B;stroke-miterlimit:10;}
	.st1{fill:#FFEC00;}
	.st2{fill:#E1007A;}
	.st3{fill:#009DDF;}
	.st4{fill:#1A171B;}
	.st5{fill:#FFFFFF;}
</style>
<circle class="st0" cx="-91" cy="-84.68" r="141.73"/>
<g>
	<circle class="st4" cx="70.87" cy="70.87" r="66.61"/>
	<g>
		<path class="st5" d="M83.05,116.77c-0.88-1.13-1.75-2.26-2.63-3.38c-1.42-1.82-2.84-3.63-4.26-5.45c-0.08-0.1-0.16-0.19-0.27-0.33
			c-2.62,2.09-5.22,4.17-7.87,6.28c-0.87-1.24-1.74-2.46-2.61-3.7c1.74-1.34,3.45-2.65,5.21-4.01c-0.13-0.05-0.21-0.09-0.28-0.09
			c-2.14-0.24-4.27-0.47-6.41-0.71c-0.97-0.11-1.94-0.21-2.91-0.33c-1.24-0.15-1.89-0.7-2.17-1.93c-0.29-1.25-0.52-2.52-0.77-3.78
			c-0.72-3.62-1.43-7.24-2.15-10.86c-0.73-3.66-1.45-7.32-2.18-10.98c-0.78-3.95-1.57-7.9-2.35-11.86
			c-0.86-4.36-1.72-8.71-2.58-13.07c-0.55-2.76-1.1-5.52-1.65-8.28c-0.1-0.51-0.19-1.03-0.26-1.55c-0.08-0.56,0.03-1.1,0.28-1.61
			c0.32-0.64,0.85-0.97,1.54-1.05c0.59-0.06,1.15,0.05,1.69,0.3c2.36,1.09,4.73,2.17,7.09,3.26c15.97,7.38,31.93,14.77,47.9,22.16
			c0.27,0.12,0.53,0.26,0.79,0.41c0.76,0.43,1.13,1.09,1.1,1.96c-0.02,0.58-0.09,1.16-0.15,1.73c-0.2,1.77-0.4,3.54-0.6,5.31
			c-0.1,0.84-0.2,1.69-0.3,2.53c-0.01,0.08,0,0.16,0,0.32c1.74-1.4,3.42-2.75,5.13-4.12c0.91,1.18,1.79,2.33,2.72,3.54
			c-2.32,1.79-4.62,3.57-6.96,5.37c2.47,3.12,4.92,6.21,7.41,9.36c-1.25,0.95-2.45,1.86-3.69,2.81c-2.37-3.06-4.73-6.11-7.11-9.19
			c-3.59,2.83-7.15,5.63-10.75,8.46c2.42,3.03,4.82,6.04,7.24,9.08c-1.2,0.96-2.37,1.91-3.6,2.89c-0.81-1.01-1.59-2.03-2.38-3.04
			c-0.8-1.03-1.6-2.05-2.4-3.08c-0.79-1.01-1.58-2.03-2.4-3.07c-3.34,2.64-6.66,5.25-10.02,7.9c2.4,3.02,4.78,6.02,7.19,9.05
			c-0.13,0.1-0.24,0.2-0.36,0.29c-0.94,0.72-1.89,1.44-2.83,2.16c-0.11,0.08-0.21,0.18-0.31,0.28
			C83.11,116.77,83.08,116.77,83.05,116.77z M102.72,69.49C87.44,62.42,72.2,55.37,56.97,48.32c-0.02,0.02-0.03,0.05-0.05,0.07
			c6.47,8.23,12.94,16.45,19.4,24.67c5.23-2.06,10.02,0.77,11.76,4.3c1.92,3.88,0.95,8.54-2.4,11.25c-3.34,2.7-8.19,2.69-11.54-0.04
			c-1.64-1.34-2.7-3.04-3.14-5.11c-0.56-2.69,0-5.16,1.57-7.43c-6.39-8.14-12.78-16.26-19.16-24.38c-0.05-0.07-0.11-0.13-0.17-0.19
			c-0.01-0.01-0.03-0.01-0.04-0.01c-0.01,0-0.02,0.01-0.04,0.03c3.25,16.42,6.49,32.85,9.74,49.27c2.15,0.24,4.24,0.48,6.34,0.72
			c1.94,0.22,3.88,0.43,5.82,0.66c0.32,0.04,0.56-0.03,0.81-0.23c6.8-5.36,13.61-10.71,20.42-16.06c1.56-1.22,3.11-2.45,4.67-3.68
			c0.16-0.12,0.3-0.23,0.33-0.46c0.19-1.71,0.4-3.43,0.6-5.14c0.19-1.62,0.38-3.23,0.57-4.85
			C102.55,70.98,102.63,70.25,102.72,69.49z M79.87,86.13c2.61,0.04,4.68-1.98,4.71-4.6c0.03-2.51-2-4.61-4.46-4.69
			c-2.54-0.09-4.81,1.87-4.84,4.61C75.26,84.02,77.28,86.1,79.87,86.13z"/>
		<path class="st5" d="M67.77,24.97c0.15,0.03,0.3,0.07,0.45,0.08c10.23,0.69,18.97,4.63,26.13,12.01c0.16,0.16,0.32,0.32,0.5,0.5
			c0.19-0.15,0.37-0.3,0.56-0.45c0.49-0.38,1.03-0.64,1.66-0.69c0.67-0.05,1.26,0.12,1.79,0.53c0.22,0.17,0.43,0.37,0.61,0.59
			c1.25,1.57,2.5,3.15,3.73,4.74c0.64,0.82,0.77,1.75,0.4,2.73c-0.18,0.47-0.49,0.86-0.89,1.17c-1.58,1.24-3.15,2.49-4.74,3.72
			c-1.27,0.98-2.93,0.79-3.93-0.46c-1.25-1.56-2.49-3.12-3.71-4.7c-1.01-1.31-0.8-2.96,0.47-4.01c0.14-0.12,0.28-0.23,0.45-0.37
			c-0.15-0.16-0.28-0.31-0.41-0.45c-3.16-3.2-6.73-5.83-10.86-7.66c-2.83-1.25-5.77-2.06-8.84-2.46c-2.51-0.32-5.02-0.34-7.54-0.16
			c-3.13,0.22-6.2,0.76-9.19,1.75c-6.57,2.16-11.8,6.13-15.78,11.77c-2.86,4.05-4.96,8.46-6.14,13.29
			c-0.81,3.3-1.08,6.64-0.79,10.03c0.36,4.29,1.56,8.36,3.43,12.23c0.6,1.25,1.3,2.45,1.95,3.67c0.07,0.14,0.16,0.26,0.27,0.44
			c0.15-0.12,0.29-0.22,0.4-0.33c1.13-1.08,3.12-0.89,4.1,0.4c1.2,1.59,2.45,3.15,3.69,4.71c0.69,0.88,0.74,1.84,0.38,2.84
			c-0.15,0.42-0.43,0.76-0.79,1.03c-1.62,1.27-3.25,2.51-4.84,3.81c-1.17,0.95-3.04,0.65-3.88-0.45c-0.89-1.15-1.8-2.29-2.71-3.44
			c-0.37-0.47-0.74-0.93-1.1-1.4c-0.91-1.18-0.7-2.91,0.46-3.85c0.23-0.19,0.47-0.36,0.74-0.57c-0.09-0.15-0.18-0.29-0.26-0.43
			c-2.25-3.55-3.98-7.33-5.06-11.39c-0.61-2.3-1.01-4.64-1.16-7.02c-0.02-0.28-0.1-0.55-0.15-0.82c0-1.19,0-2.38,0-3.57
			c0.05-0.26,0.13-0.52,0.15-0.78c0.11-1.8,0.36-3.57,0.71-5.34c0.72-3.64,1.89-7.13,3.6-10.43c2.39-4.6,5.62-8.51,9.6-11.81
			c6.56-5.43,14.09-8.42,22.6-8.94c0.12-0.01,0.24-0.05,0.36-0.07C65.39,24.97,66.58,24.97,67.77,24.97z M37.29,88.67
			c0.52,0.65,1.01,1.27,1.5,1.87c0.48-0.27,1.82-1.33,2.01-1.6c-0.47-0.61-0.95-1.23-1.45-1.87C38.65,87.62,37.99,88.13,37.29,88.67
			z M94.98,43.28c0.52,0.67,1.01,1.31,1.52,1.97c0.68-0.53,1.32-1.04,2-1.57c-0.51-0.66-1.01-1.3-1.52-1.96
			C96.3,42.27,95.65,42.76,94.98,43.28z"/>
	</g>
</g>
</svg>
