<?xml version="1.0" encoding="utf-8"?>
<!-- Generator: Adobe Illustrator 25.2.1, SVG Export Plug-In . SVG Version: 6.00 Build 0)  -->
<svg version="1.1" id="Capa_1" xmlns="http://www.w3.org/2000/svg" xmlns:xlink="http://www.w3.org/1999/xlink" x="0px" y="0px"
	 viewBox="0 0 850.39 850.39" style="enable-background:new 0 0 850.39 850.39;" xml:space="preserve">
<style type="text/css">
	.st0{fill:#FFFFFF;}
	.st1{fill:#1D1D1B;}
	.st2{fill:#80A5D7;}
	.st3{fill-rule:evenodd;clip-rule:evenodd;fill:#FFFFFF;}
	.st4{fill-rule:evenodd;clip-rule:evenodd;fill:#1D1D1B;}
</style>
<g>
	<g>
		<path class="st1" d="M145.82,215.78c185.68,0,371.11,0,556.9,0c-0.75,0.75-1.31,1.31-1.88,1.87
			c-52.3,51.56-104.6,103.12-156.9,154.68c-36.62,36.1-73.24,72.2-109.84,108.33c-3.2,3.16-6.8,4.91-11.4,4.31
			c-3.03-0.4-5.47-1.85-7.6-3.96c-12.95-12.78-25.91-25.54-38.88-38.3c-73.25-72.12-146.5-144.24-219.75-216.35
			c-3.18-3.13-6.36-6.26-9.54-9.39C146.61,216.64,146.3,216.29,145.82,215.78z"/>
	</g>
	<g>
		<path class="st1" d="M182.55,634.62c55.86-55.11,111.65-110.16,167.56-165.32c0.29,0.27,0.64,0.58,0.96,0.91
			c21.29,21.11,42.57,42.21,63.85,63.33c5.8,5.76,13.16,5.8,18.99,0.05c20.52-20.23,41.04-40.46,61.55-60.69
			c0.41-0.41,0.77-0.87,1.04-1.17c55.16,54.41,110.21,108.7,165.16,162.9C502.18,634.62,342.39,634.62,182.55,634.62z"/>
	</g>
	<g>
		<path class="st1" d="M737,234.92c0,0.74,0,1.26,0,1.77c0,119.08,0,238.16,0.01,357.24c0,7.16-0.57,14.21-3.18,20.98
			c-3.4,8.82-9.74,14.54-18.78,17.48c-1.15,0.37-1.84,0.14-2.66-0.68c-23.72-23.48-47.46-46.93-71.21-70.39
			c-37.44-36.99-74.89-73.98-112.33-110.97c-1.72-1.7-3.47-3.38-5.14-5C594.78,375.22,665.78,305.18,737,234.92z"/>
	</g>
	<g>
		<path class="st1" d="M113.39,236.46c70.02,69.08,139.8,137.93,209.71,206.9c-0.23,0.25-0.58,0.63-0.94,0.98
			c-63.22,62.33-126.44,124.65-189.64,187c-0.84,0.83-1.49,1.01-2.63,0.56c-8.84-3.44-13.74-10.04-15.43-19.01
			c-0.69-3.67-1.03-7.45-1.03-11.18c-0.05-121.1-0.04-242.2-0.04-363.3C113.39,237.84,113.39,237.27,113.39,236.46z"/>
	</g>
</g>
</svg>
