<?xml version="1.0" encoding="utf-8"?>
<!-- Generator: Adobe Illustrator 25.2.1, SVG Export Plug-In . SVG Version: 6.00 Build 0)  -->
<svg version="1.1" id="Capa_1" xmlns="http://www.w3.org/2000/svg" xmlns:xlink="http://www.w3.org/1999/xlink" x="0px" y="0px"
	 viewBox="0 0 1417.32 340.16" style="enable-background:new 0 0 1417.32 340.16;" xml:space="preserve">
<style type="text/css">
	.st0{fill:#1D1D1B;}
</style>
<g>
	<g>
		<path class="st0" d="M195.3,293.09h-11.11l1.65-8.11h32.4l-1.65,8.11h-11.06l-5.63,28.06h-10.23L195.3,293.09z"/>
		<path class="st0" d="M248.42,293.14l-5.58,28.01h-9.3l0.57-2.89c-1.21,1.14-2.56,1.98-4.06,2.53c-1.5,0.55-3.04,0.83-4.62,0.83
			c-3.07,0-5.5-0.83-7.31-2.48c-1.81-1.65-2.71-4.01-2.71-7.08c0-1.14,0.12-2.29,0.36-3.46l3.1-15.45h9.82l-2.89,14.52
			c-0.14,0.65-0.21,1.29-0.21,1.91c0,2.45,1.26,3.67,3.77,3.67c1.69,0,3.08-0.52,4.19-1.57c1.1-1.05,1.86-2.61,2.27-4.68l2.79-13.85
			H248.42z"/>
		<path class="st0" d="M267.36,320.84c-2.22-0.52-3.95-1.17-5.19-1.97l3.57-6.87c1.27,0.79,2.79,1.42,4.55,1.89s3.48,0.7,5.17,0.7
			c3,0,4.5-0.67,4.5-2.02c0-0.55-0.35-0.96-1.06-1.21s-1.83-0.51-3.38-0.75c-2.07-0.38-3.77-0.78-5.09-1.21
			c-1.33-0.43-2.49-1.16-3.49-2.2c-1-1.04-1.5-2.48-1.5-4.34c0-3.24,1.39-5.74,4.16-7.52c2.77-1.77,6.36-2.66,10.77-2.66
			c2,0,3.93,0.2,5.79,0.59c1.86,0.4,3.48,0.94,4.86,1.63l-3.46,6.87c-2.34-1.41-5.12-2.12-8.32-2.12c-1.52,0-2.64,0.2-3.39,0.6
			s-1.11,0.9-1.11,1.52c0,0.55,0.35,0.96,1.06,1.22c0.71,0.26,1.87,0.54,3.49,0.85c2,0.34,3.66,0.74,4.99,1.19
			c1.33,0.45,2.48,1.19,3.46,2.22c0.98,1.03,1.47,2.45,1.47,4.24c0,3.24-1.4,5.73-4.18,7.49c-2.79,1.76-6.36,2.63-10.7,2.63
			C271.9,321.62,269.58,321.36,267.36,320.84z"/>
		<path class="st0" d="M299.01,320.04c-2.21-1.05-3.91-2.54-5.12-4.47c-1.21-1.93-1.81-4.17-1.81-6.72c0-3.07,0.74-5.82,2.22-8.27
			c1.48-2.44,3.53-4.37,6.15-5.79c2.62-1.41,5.56-2.12,8.84-2.12c2.96,0,5.55,0.53,7.75,1.57c2.2,1.05,3.91,2.53,5.12,4.44
			c1.21,1.91,1.81,4.14,1.81,6.69c0,3.06-0.74,5.83-2.22,8.29s-3.52,4.4-6.12,5.81c-2.6,1.41-5.55,2.12-8.86,2.12
			C303.8,321.62,301.21,321.09,299.01,320.04z M312.14,311.54c1.24-1.45,1.86-3.32,1.86-5.63c0-1.65-0.47-2.96-1.4-3.93
			c-0.93-0.96-2.22-1.45-3.88-1.45c-1.96,0-3.57,0.72-4.81,2.17c-1.24,1.45-1.86,3.34-1.86,5.69c0,1.65,0.47,2.95,1.39,3.9
			c0.93,0.95,2.22,1.42,3.88,1.42C309.29,313.71,310.9,312.98,312.14,311.54z"/>
		<path class="st0" d="M332.81,282.81h9.82l-7.65,38.34h-9.82L332.81,282.81z"/>
		<path class="st0" d="M375.96,293.14l-5.58,28.01h-9.3l0.57-2.89c-1.21,1.14-2.56,1.98-4.06,2.53c-1.5,0.55-3.04,0.83-4.62,0.83
			c-3.07,0-5.5-0.83-7.31-2.48c-1.81-1.65-2.71-4.01-2.71-7.08c0-1.14,0.12-2.29,0.36-3.46l3.1-15.45h9.82l-2.89,14.52
			c-0.14,0.65-0.21,1.29-0.21,1.91c0,2.45,1.26,3.67,3.77,3.67c1.69,0,3.08-0.52,4.19-1.57c1.1-1.05,1.86-2.61,2.27-4.68l2.79-13.85
			H375.96z"/>
		<path class="st0" d="M384.14,320.04c-2.22-1.05-3.94-2.54-5.17-4.47c-1.22-1.93-1.83-4.17-1.83-6.72c0-3.07,0.74-5.82,2.22-8.27
			c1.48-2.44,3.55-4.37,6.2-5.79c2.65-1.41,5.63-2.12,8.94-2.12c3.17,0,5.91,0.66,8.22,1.99c2.31,1.33,4,3.2,5.06,5.61l-8.37,3.98
			c-1.03-2.48-2.84-3.72-5.43-3.72c-2,0-3.64,0.72-4.94,2.17c-1.29,1.45-1.94,3.31-1.94,5.58c0,1.65,0.47,2.97,1.42,3.95
			c0.95,0.98,2.3,1.47,4.06,1.47c1.31,0,2.46-0.29,3.46-0.88c1-0.59,1.86-1.52,2.58-2.79l7.18,4.34c-1.34,2.27-3.23,4.05-5.66,5.32
			c-2.43,1.27-5.18,1.91-8.24,1.91C388.96,321.62,386.37,321.09,384.14,320.04z"/>
		<path class="st0" d="M412.54,293.14h9.77l-5.58,28.01h-9.77L412.54,293.14z M414.71,288.65c-1.03-0.93-1.55-2.09-1.55-3.46
			c0-1.62,0.58-2.95,1.73-4c1.15-1.05,2.68-1.58,4.57-1.58c1.72,0,3.1,0.44,4.13,1.32c1.03,0.88,1.55,2.01,1.55,3.38
			c0,1.69-0.59,3.07-1.76,4.14s-2.7,1.6-4.6,1.6C417.11,290.04,415.74,289.57,414.71,288.65z"/>
		<path class="st0" d="M430.47,320.04c-2.21-1.05-3.91-2.54-5.12-4.47c-1.21-1.93-1.81-4.17-1.81-6.72c0-3.07,0.74-5.82,2.22-8.27
			c1.48-2.44,3.53-4.37,6.15-5.79c2.62-1.41,5.56-2.12,8.84-2.12c2.96,0,5.55,0.53,7.75,1.57c2.2,1.05,3.91,2.53,5.12,4.44
			c1.21,1.91,1.81,4.14,1.81,6.69c0,3.06-0.74,5.83-2.22,8.29s-3.52,4.4-6.12,5.81c-2.6,1.41-5.55,2.12-8.86,2.12
			C435.26,321.62,432.68,321.09,430.47,320.04z M443.6,311.54c1.24-1.45,1.86-3.32,1.86-5.63c0-1.65-0.47-2.96-1.4-3.93
			c-0.93-0.96-2.22-1.45-3.88-1.45c-1.96,0-3.57,0.72-4.81,2.17c-1.24,1.45-1.86,3.34-1.86,5.69c0,1.65,0.47,2.95,1.39,3.9
			c0.93,0.95,2.22,1.42,3.88,1.42C440.76,313.71,442.36,312.98,443.6,311.54z M445.36,281.93h10.13l-10.59,7.85h-7.29L445.36,281.93
			z"/>
		<path class="st0" d="M487.08,295.13c1.84,1.64,2.76,3.99,2.76,7.05c0,1.14-0.12,2.29-0.36,3.46l-3.1,15.5h-9.82l2.89-14.57
			c0.14-0.59,0.21-1.2,0.21-1.86c0-2.48-1.29-3.72-3.88-3.72c-1.72,0-3.13,0.53-4.24,1.58c-1.1,1.05-1.88,2.63-2.32,4.73
			l-2.79,13.85h-9.82l5.58-28.01h9.3l-0.57,2.89c1.21-1.14,2.57-1.98,4.08-2.53c1.51-0.55,3.08-0.83,4.7-0.83
			C482.79,292.68,485.24,293.5,487.08,295.13z"/>
		<path class="st0" d="M501.76,311.46c1.01,0.98,1.52,2.28,1.52,3.9c0,0.83-0.16,1.61-0.47,2.35c-0.31,0.74-0.86,1.71-1.65,2.92
			l-5.58,8.63h-6.15l4.24-8.63c-0.69-0.48-1.23-1.1-1.63-1.86c-0.4-0.76-0.59-1.6-0.59-2.53c0-1.86,0.61-3.37,1.84-4.52
			c1.22-1.15,2.71-1.73,4.47-1.73C499.41,309.99,500.74,310.48,501.76,311.46z"/>
		<path class="st0" d="M525.01,320.84c-2.22-0.52-3.95-1.17-5.19-1.97l3.57-6.87c1.27,0.79,2.79,1.42,4.55,1.89
			c1.76,0.47,3.48,0.7,5.17,0.7c3,0,4.5-0.67,4.5-2.02c0-0.55-0.35-0.96-1.06-1.21s-1.83-0.51-3.38-0.75
			c-2.07-0.38-3.77-0.78-5.09-1.21c-1.33-0.43-2.49-1.16-3.49-2.2c-1-1.04-1.5-2.48-1.5-4.34c0-3.24,1.39-5.74,4.16-7.52
			c2.77-1.77,6.36-2.66,10.77-2.66c2,0,3.93,0.2,5.79,0.59c1.86,0.4,3.48,0.94,4.86,1.63l-3.46,6.87c-2.34-1.41-5.12-2.12-8.32-2.12
			c-1.52,0-2.64,0.2-3.39,0.6c-0.74,0.4-1.11,0.9-1.11,1.52c0,0.55,0.35,0.96,1.06,1.22c0.71,0.26,1.87,0.54,3.49,0.85
			c2,0.34,3.66,0.74,4.99,1.19c1.33,0.45,2.48,1.19,3.46,2.22c0.98,1.03,1.47,2.45,1.47,4.24c0,3.24-1.4,5.73-4.18,7.49
			c-2.79,1.76-6.36,2.63-10.7,2.63C529.55,321.62,527.24,321.36,525.01,320.84z"/>
		<path class="st0" d="M554.44,293.14h9.77l-5.58,28.01h-9.77L554.44,293.14z M556.61,288.65c-1.03-0.93-1.55-2.09-1.55-3.46
			c0-1.62,0.58-2.95,1.73-4c1.15-1.05,2.68-1.58,4.57-1.58c1.72,0,3.1,0.44,4.13,1.32c1.03,0.88,1.55,2.01,1.55,3.38
			c0,1.69-0.59,3.07-1.76,4.14s-2.7,1.6-4.6,1.6C559.01,290.04,557.65,289.57,556.61,288.65z"/>
		<path class="st0" d="M595.04,295.13c1.84,1.64,2.76,3.99,2.76,7.05c0,1.14-0.12,2.29-0.36,3.46l-3.1,15.5h-9.82l2.89-14.57
			c0.14-0.59,0.21-1.2,0.21-1.86c0-2.48-1.29-3.72-3.88-3.72c-1.72,0-3.13,0.53-4.24,1.58s-1.88,2.63-2.32,4.73l-2.79,13.85h-9.82
			l5.58-28.01h9.3l-0.57,2.89c1.21-1.14,2.57-1.98,4.08-2.53c1.51-0.55,3.08-0.83,4.7-0.83
			C590.74,292.68,593.19,293.5,595.04,295.13z"/>
		<path class="st0" d="M620.33,293.14h9.77l-5.58,28.01h-9.77L620.33,293.14z M622.5,288.65c-1.03-0.93-1.55-2.09-1.55-3.46
			c0-1.62,0.58-2.95,1.73-4c1.15-1.05,2.68-1.58,4.57-1.58c1.72,0,3.1,0.44,4.13,1.32c1.03,0.88,1.55,2.01,1.55,3.38
			c0,1.69-0.59,3.07-1.76,4.14s-2.7,1.6-4.6,1.6C624.9,290.04,623.53,289.57,622.5,288.65z"/>
		<path class="st0" d="M678.98,295.16c1.79,1.65,2.69,4,2.69,7.03c0,1.14-0.12,2.29-0.36,3.46l-3.05,15.5h-9.82l2.89-14.47
			c0.14-0.65,0.21-1.31,0.21-1.96c0-1.24-0.3-2.17-0.9-2.79c-0.6-0.62-1.47-0.93-2.61-0.93c-3.14,0-5.12,2.02-5.94,6.05l-2.84,14.11
			h-9.82l2.95-14.47c0.14-0.58,0.21-1.22,0.21-1.91c0-1.24-0.3-2.18-0.9-2.82c-0.6-0.64-1.47-0.96-2.61-0.96
			c-3.17,0-5.17,2.05-5.99,6.15l-2.79,14.01h-9.82l5.58-28.01h9.3l-0.57,2.84c2.31-2.2,5.1-3.31,8.37-3.31
			c1.86,0,3.53,0.39,5.01,1.16c1.48,0.77,2.62,1.9,3.41,3.38c1.31-1.48,2.83-2.61,4.57-3.38c1.74-0.78,3.64-1.16,5.71-1.16
			C674.82,292.68,677.19,293.5,678.98,295.16z"/>
		<path class="st0" d="M712.29,294.2c1.81,1.02,3.26,2.49,4.37,4.42c1.1,1.93,1.65,4.19,1.65,6.77c0,3.06-0.68,5.83-2.04,8.29
			c-1.36,2.46-3.21,4.4-5.53,5.81c-2.33,1.41-4.87,2.12-7.62,2.12c-4.07,0-6.92-1.27-8.58-3.82l-2.69,13.38h-9.82l7.6-38.03h9.3
			l-0.57,2.63c2.24-2.07,4.94-3.1,8.11-3.1C708.54,292.68,710.48,293.18,712.29,294.2z M706.53,311.54
			c1.24-1.45,1.86-3.32,1.86-5.63c0-1.65-0.47-2.96-1.42-3.93c-0.95-0.96-2.25-1.45-3.9-1.45c-1.96,0-3.57,0.72-4.81,2.17
			c-1.24,1.45-1.86,3.34-1.86,5.69c0,1.65,0.47,2.95,1.42,3.9c0.95,0.95,2.25,1.42,3.9,1.42
			C703.68,313.71,705.29,312.98,706.53,311.54z"/>
		<path class="st0" d="M727.35,320.04c-2.21-1.05-3.91-2.54-5.12-4.47c-1.21-1.93-1.81-4.17-1.81-6.72c0-3.07,0.74-5.82,2.22-8.27
			c1.48-2.44,3.53-4.37,6.15-5.79c2.62-1.41,5.56-2.12,8.84-2.12c2.96,0,5.55,0.53,7.75,1.57c2.2,1.05,3.91,2.53,5.12,4.44
			c1.2,1.91,1.81,4.14,1.81,6.69c0,3.06-0.74,5.83-2.22,8.29s-3.52,4.4-6.12,5.81c-2.6,1.41-5.56,2.12-8.86,2.12
			C732.14,321.62,729.56,321.09,727.35,320.04z M740.48,311.54c1.24-1.45,1.86-3.32,1.86-5.63c0-1.65-0.47-2.96-1.4-3.93
			c-0.93-0.96-2.22-1.45-3.88-1.45c-1.96,0-3.57,0.72-4.8,2.17c-1.24,1.45-1.86,3.34-1.86,5.69c0,1.65,0.47,2.95,1.4,3.9
			c0.93,0.95,2.22,1.42,3.87,1.42C737.63,313.71,739.24,312.98,740.48,311.54z"/>
		<path class="st0" d="M777.89,292.68l-1.7,8.83c-0.86-0.1-1.6-0.15-2.22-0.15c-2.2,0-3.97,0.53-5.3,1.57
			c-1.33,1.05-2.21,2.71-2.66,4.99l-2.69,13.23h-9.82l5.58-28.01h9.3l-0.62,3.1C770.1,293.87,773.48,292.68,777.89,292.68z"/>
		<path class="st0" d="M789.78,310.71c-0.07,0.48-0.11,0.79-0.11,0.93c0,1.59,0.86,2.38,2.58,2.38c0.93,0,1.91-0.28,2.95-0.83
			l1.24,6.77c-1.93,1.1-4.36,1.65-7.29,1.65c-2.89,0-5.19-0.72-6.9-2.17c-1.71-1.45-2.56-3.46-2.56-6.05c0-1,0.09-1.88,0.26-2.63
			l1.86-9.25h-4.14l1.5-7.34h4.08l1.45-7.29h9.82l-1.45,7.29h6.36l-1.45,7.34h-6.36L789.78,310.71z"/>
		<path class="st0" d="M833.8,293.14l-5.58,28.01h-9.3l0.57-2.63c-2.24,2.07-4.94,3.1-8.11,3.1c-2.07,0-4-0.51-5.81-1.53
			c-1.81-1.01-3.27-2.49-4.37-4.42c-1.1-1.93-1.65-4.2-1.65-6.82c0-3.03,0.68-5.78,2.04-8.25c1.36-2.46,3.21-4.4,5.53-5.81
			c2.32-1.41,4.86-2.12,7.62-2.12c4.07,0,6.92,1.27,8.58,3.82l0.67-3.36H833.8z M819.59,311.54c1.24-1.45,1.86-3.32,1.86-5.63
			c0-1.65-0.47-2.96-1.42-3.93c-0.95-0.96-2.25-1.45-3.9-1.45c-1.96,0-3.57,0.72-4.81,2.17c-1.24,1.45-1.86,3.34-1.86,5.69
			c0,1.65,0.47,2.95,1.42,3.9c0.95,0.95,2.25,1.42,3.9,1.42C816.75,313.71,818.35,312.98,819.59,311.54z"/>
		<path class="st0" d="M858.51,292.68l-1.71,8.83c-0.86-0.1-1.6-0.15-2.22-0.15c-2.2,0-3.97,0.53-5.3,1.57
			c-1.33,1.05-2.21,2.71-2.66,4.99l-2.69,13.23h-9.82l5.58-28.01h9.3l-0.62,3.1C850.72,293.87,854.09,292.68,858.51,292.68z"/>
		<path class="st0" d="M908.63,282.81l-7.65,38.34h-9.3l0.57-2.74c-2.24,2.14-4.94,3.21-8.11,3.21c-2.06,0-4-0.51-5.81-1.53
			c-1.81-1.01-3.27-2.49-4.37-4.42c-1.1-1.93-1.65-4.2-1.65-6.82c0-3.03,0.68-5.78,2.04-8.25c1.36-2.46,3.21-4.4,5.55-5.81
			c2.34-1.41,4.89-2.12,7.65-2.12c4,0,6.84,1.24,8.53,3.72l2.74-13.59H908.63z M892.35,311.54c1.24-1.45,1.86-3.32,1.86-5.63
			c0-1.65-0.47-2.96-1.4-3.93c-0.93-0.96-2.22-1.45-3.87-1.45c-1.97,0-3.57,0.72-4.81,2.17c-1.24,1.45-1.86,3.34-1.86,5.69
			c0,1.65,0.47,2.95,1.4,3.9c0.93,0.95,2.22,1.42,3.88,1.42C889.51,313.71,891.11,312.98,892.35,311.54z"/>
		<path class="st0" d="M914.68,320.04c-2.21-1.05-3.91-2.54-5.12-4.47c-1.21-1.93-1.81-4.17-1.81-6.72c0-3.07,0.74-5.82,2.22-8.27
			c1.48-2.44,3.53-4.37,6.15-5.79c2.62-1.41,5.56-2.12,8.83-2.12c2.96,0,5.55,0.53,7.75,1.57c2.2,1.05,3.91,2.53,5.12,4.44
			c1.21,1.91,1.81,4.14,1.81,6.69c0,3.06-0.74,5.83-2.22,8.29c-1.48,2.46-3.52,4.4-6.12,5.81c-2.6,1.41-5.55,2.12-8.86,2.12
			C919.46,321.62,916.88,321.09,914.68,320.04z M927.8,311.54c1.24-1.45,1.86-3.32,1.86-5.63c0-1.65-0.47-2.96-1.4-3.93
			c-0.93-0.96-2.22-1.45-3.87-1.45c-1.96,0-3.57,0.72-4.81,2.17c-1.24,1.45-1.86,3.34-1.86,5.69c0,1.65,0.47,2.95,1.39,3.9
			c0.93,0.95,2.22,1.42,3.88,1.42C924.96,313.71,926.56,312.98,927.8,311.54z"/>
		<path class="st0" d="M971.29,295.13c1.84,1.64,2.76,3.99,2.76,7.05c0,1.14-0.12,2.29-0.36,3.46l-3.1,15.5h-9.82l2.89-14.57
			c0.14-0.59,0.21-1.2,0.21-1.86c0-2.48-1.29-3.72-3.88-3.72c-1.72,0-3.14,0.53-4.24,1.58c-1.1,1.05-1.88,2.63-2.32,4.73
			l-2.79,13.85h-9.82l5.58-28.01h9.3l-0.57,2.89c1.2-1.14,2.56-1.98,4.08-2.53c1.52-0.55,3.08-0.83,4.7-0.83
			C966.99,292.68,969.45,293.5,971.29,295.13z"/>
		<path class="st0" d="M1014.2,282.81l-7.65,38.34h-9.3l0.57-2.74c-2.24,2.14-4.94,3.21-8.11,3.21c-2.07,0-4-0.51-5.81-1.53
			c-1.81-1.01-3.27-2.49-4.37-4.42c-1.1-1.93-1.65-4.2-1.65-6.82c0-3.03,0.68-5.78,2.04-8.25c1.36-2.46,3.21-4.4,5.56-5.81
			c2.34-1.41,4.89-2.12,7.65-2.12c4,0,6.84,1.24,8.53,3.72l2.74-13.59H1014.2z M997.93,311.54c1.24-1.45,1.86-3.32,1.86-5.63
			c0-1.65-0.47-2.96-1.4-3.93c-0.93-0.96-2.22-1.45-3.88-1.45c-1.96,0-3.57,0.72-4.8,2.17c-1.24,1.45-1.86,3.34-1.86,5.69
			c0,1.65,0.47,2.95,1.4,3.9c0.93,0.95,2.22,1.42,3.87,1.42C995.09,313.71,996.69,312.98,997.93,311.54z"/>
		<path class="st0" d="M1043.56,309.58h-20.57c0.34,3.03,2.46,4.55,6.36,4.55c1.24,0,2.44-0.19,3.62-0.57
			c1.17-0.38,2.22-0.95,3.15-1.71l4.08,6.15c-3.27,2.41-7.25,3.62-11.94,3.62c-2.96,0-5.57-0.53-7.83-1.58
			c-2.26-1.05-4-2.53-5.22-4.44c-1.22-1.91-1.84-4.16-1.84-6.74c0-3.07,0.71-5.83,2.14-8.3c1.43-2.46,3.43-4.39,5.99-5.79
			c2.57-1.4,5.51-2.09,8.81-2.09c2.79,0,5.23,0.51,7.31,1.52c2.08,1.02,3.69,2.46,4.81,4.32c1.12,1.86,1.68,4.01,1.68,6.46
			C1044.13,306.32,1043.94,307.85,1043.56,309.58z M1025.88,300.92c-1.07,0.84-1.84,2.01-2.33,3.49h11.52
			c0.04-1.48-0.43-2.64-1.4-3.49s-2.24-1.27-3.82-1.27C1028.28,299.65,1026.95,300.08,1025.88,300.92z"/>
		<path class="st0" d="M1090.74,309.58h-20.57c0.34,3.03,2.46,4.55,6.36,4.55c1.24,0,2.45-0.19,3.62-0.57
			c1.17-0.38,2.22-0.95,3.15-1.71l4.08,6.15c-3.28,2.41-7.25,3.62-11.94,3.62c-2.96,0-5.58-0.53-7.83-1.58
			c-2.26-1.05-4-2.53-5.22-4.44c-1.22-1.91-1.84-4.16-1.84-6.74c0-3.07,0.72-5.83,2.14-8.3c1.43-2.46,3.43-4.39,6-5.79
			c2.56-1.4,5.5-2.09,8.81-2.09c2.79,0,5.23,0.51,7.31,1.52c2.08,1.02,3.69,2.46,4.8,4.32c1.12,1.86,1.68,4.01,1.68,6.46
			C1091.3,306.32,1091.12,307.85,1090.74,309.58z M1073.07,300.92c-1.07,0.84-1.84,2.01-2.33,3.49h11.52
			c0.03-1.48-0.43-2.64-1.4-3.49c-0.97-0.84-2.24-1.27-3.83-1.27C1075.46,299.65,1074.13,300.08,1073.07,300.92z"/>
		<path class="st0" d="M1096.6,320.84c-2.22-0.52-3.95-1.17-5.19-1.97l3.57-6.87c1.27,0.79,2.79,1.42,4.55,1.89
			c1.76,0.47,3.48,0.7,5.17,0.7c3,0,4.5-0.67,4.5-2.02c0-0.55-0.35-0.96-1.06-1.21c-0.7-0.26-1.83-0.51-3.38-0.75
			c-2.07-0.38-3.77-0.78-5.09-1.21c-1.33-0.43-2.49-1.16-3.49-2.2c-1-1.04-1.5-2.48-1.5-4.34c0-3.24,1.39-5.74,4.16-7.52
			c2.77-1.77,6.36-2.66,10.77-2.66c2,0,3.93,0.2,5.79,0.59c1.86,0.4,3.48,0.94,4.86,1.63l-3.46,6.87c-2.34-1.41-5.11-2.12-8.32-2.12
			c-1.52,0-2.64,0.2-3.39,0.6c-0.74,0.4-1.11,0.9-1.11,1.52c0,0.55,0.35,0.96,1.06,1.22s1.87,0.54,3.49,0.85
			c2,0.34,3.66,0.74,4.99,1.19c1.33,0.45,2.48,1.19,3.46,2.22c0.98,1.03,1.47,2.45,1.47,4.24c0,3.24-1.4,5.73-4.18,7.49
			c-2.79,1.76-6.36,2.63-10.7,2.63C1101.14,321.62,1098.82,321.36,1096.6,320.84z"/>
		<path class="st0" d="M1133.89,310.71c-0.07,0.48-0.1,0.79-0.1,0.93c0,1.59,0.86,2.38,2.58,2.38c0.93,0,1.91-0.28,2.94-0.83
			l1.24,6.77c-1.93,1.1-4.36,1.65-7.29,1.65c-2.9,0-5.19-0.72-6.9-2.17c-1.7-1.45-2.56-3.46-2.56-6.05c0-1,0.09-1.88,0.26-2.63
			l1.86-9.25h-4.13l1.5-7.34h4.08l1.45-7.29h9.82l-1.45,7.29h6.36l-1.45,7.34h-6.36L1133.89,310.71z"/>
		<path class="st0" d="M1174.24,309.58h-20.57c0.34,3.03,2.46,4.55,6.36,4.55c1.24,0,2.44-0.19,3.62-0.57
			c1.17-0.38,2.22-0.95,3.15-1.71l4.08,6.15c-3.27,2.41-7.25,3.62-11.94,3.62c-2.96,0-5.57-0.53-7.83-1.58
			c-2.26-1.05-4-2.53-5.22-4.44c-1.22-1.91-1.84-4.16-1.84-6.74c0-3.07,0.71-5.83,2.14-8.3c1.43-2.46,3.43-4.39,5.99-5.79
			c2.57-1.4,5.51-2.09,8.81-2.09c2.79,0,5.23,0.51,7.31,1.52c2.08,1.02,3.69,2.46,4.81,4.32c1.12,1.86,1.68,4.01,1.68,6.46
			C1174.82,306.32,1174.62,307.85,1174.24,309.58z M1156.57,300.92c-1.07,0.84-1.84,2.01-2.33,3.49h11.52
			c0.04-1.48-0.43-2.64-1.4-3.49s-2.24-1.27-3.82-1.27C1158.96,299.65,1157.64,300.08,1156.57,300.92z M1165.41,281.93h10.13
			l-10.59,7.85h-7.29L1165.41,281.93z"/>
		<path class="st0" d="M1180.11,320.84c-2.22-0.52-3.95-1.17-5.19-1.97l3.57-6.87c1.27,0.79,2.79,1.42,4.55,1.89
			c1.76,0.47,3.48,0.7,5.17,0.7c3,0,4.5-0.67,4.5-2.02c0-0.55-0.35-0.96-1.06-1.21c-0.71-0.26-1.84-0.51-3.38-0.75
			c-2.07-0.38-3.77-0.78-5.09-1.21c-1.33-0.43-2.49-1.16-3.49-2.2c-1-1.04-1.5-2.48-1.5-4.34c0-3.24,1.39-5.74,4.16-7.52
			c2.78-1.77,6.37-2.66,10.77-2.66c2,0,3.93,0.2,5.79,0.59c1.86,0.4,3.48,0.94,4.86,1.63l-3.46,6.87c-2.34-1.41-5.12-2.12-8.32-2.12
			c-1.52,0-2.64,0.2-3.38,0.6c-0.74,0.4-1.11,0.9-1.11,1.52c0,0.55,0.35,0.96,1.06,1.22c0.7,0.26,1.87,0.54,3.49,0.85
			c2,0.34,3.66,0.74,4.99,1.19c1.33,0.45,2.48,1.19,3.46,2.22c0.98,1.03,1.47,2.45,1.47,4.24c0,3.24-1.4,5.73-4.19,7.49
			c-2.79,1.76-6.36,2.63-10.7,2.63C1184.65,321.62,1182.33,321.36,1180.11,320.84z"/>
		<path class="st0" d="M1205.69,320.17c-1.05-0.97-1.58-2.15-1.58-3.57c0-1.65,0.59-3.02,1.76-4.11c1.17-1.09,2.63-1.63,4.39-1.63
			c1.65,0,3,0.47,4.03,1.4c1.03,0.93,1.55,2.1,1.55,3.51c0,1.62-0.59,3-1.78,4.14s-2.64,1.7-4.37,1.7
			C1208.08,321.62,1206.74,321.13,1205.69,320.17z M1210.37,284.98h11.73l-6.56,23h-7.8L1210.37,284.98z"/>
	</g>
	<g>
		<path class="st0" d="M20.76,88.38v-74.6h26.8c9.6,0,16.9,1.76,21.91,5.28c5,3.52,7.51,8.63,7.51,15.32c0,3.86-0.89,7.16-2.66,9.89
			c-1.78,2.73-4.39,4.75-7.84,6.05c3.89,1.02,6.88,2.94,8.97,5.74c2.08,2.8,3.13,6.22,3.13,10.25c0,7.31-2.31,12.8-6.94,16.47
			c-4.63,3.67-11.49,5.54-20.57,5.61H20.76z M38.75,44.88h9.38c3.93-0.04,6.73-0.76,8.4-2.16c1.67-1.4,2.51-3.48,2.51-6.22
			c0-3.15-0.9-5.42-2.71-6.81c-1.81-1.39-4.73-2.08-8.76-2.08h-8.81V44.88z M38.75,56.66v17.88h11.78c3.24,0,5.74-0.74,7.48-2.23
			c1.74-1.48,2.61-3.58,2.61-6.28c0-6.22-3.09-9.34-9.27-9.38H38.75z"/>
		<path class="st0" d="M146.96,13.78V62.6c0,5.53-1.18,10.33-3.54,14.38c-2.36,4.05-5.74,7.13-10.14,9.25
			c-4.41,2.12-9.62,3.18-15.63,3.18c-9.09,0-16.24-2.36-21.47-7.07c-5.23-4.71-7.89-11.17-7.99-19.37V13.78h18.09v49.55
			c0.2,8.16,4,12.24,11.37,12.24c3.72,0,6.54-1.02,8.45-3.07c1.91-2.05,2.87-5.38,2.87-9.99V13.78H146.96z"/>
		<path class="st0" d="M196.66,68.55c0-2.63-0.93-4.68-2.79-6.15c-1.86-1.47-5.13-2.99-9.81-4.56c-4.68-1.57-8.51-3.09-11.48-4.56
			c-9.67-4.75-14.5-11.27-14.5-19.57c0-4.13,1.2-7.78,3.61-10.94c2.41-3.16,5.82-5.62,10.22-7.38c4.41-1.76,9.36-2.64,14.86-2.64
			c5.36,0,10.17,0.96,14.42,2.87c4.25,1.91,7.56,4.64,9.91,8.17c2.36,3.54,3.53,7.58,3.53,12.12h-17.93c0-3.04-0.93-5.39-2.79-7.07
			c-1.86-1.67-4.38-2.51-7.56-2.51c-3.21,0-5.75,0.71-7.61,2.13c-1.86,1.42-2.79,3.22-2.79,5.41c0,1.91,1.03,3.65,3.07,5.2
			c2.05,1.55,5.65,3.16,10.81,4.81c5.16,1.66,9.39,3.44,12.71,5.36c8.06,4.65,12.09,11.05,12.09,19.21c0,6.52-2.46,11.65-7.38,15.37
			c-4.92,3.72-11.67,5.58-20.24,5.58c-6.05,0-11.52-1.09-16.42-3.26c-4.9-2.17-8.59-5.14-11.07-8.91
			c-2.48-3.78-3.71-8.12-3.71-13.04h18.04c0,4,1.03,6.94,3.1,8.84c2.07,1.9,5.42,2.85,10.07,2.85c2.97,0,5.32-0.64,7.05-1.92
			C195.8,72.68,196.66,70.87,196.66,68.55z"/>
		<path class="st0" d="M287.15,52.61c0,6.9-1.15,12.92-3.43,18.06c-2.29,5.14-5.45,9.27-9.48,12.37l12.04,9.53l-11.12,9.43
			L259.12,89.1c-1.5,0.2-3.01,0.31-4.51,0.31c-6.35,0-11.99-1.47-16.91-4.41c-4.92-2.94-8.75-7.14-11.5-12.61
			c-2.75-5.46-4.18-11.75-4.28-18.85v-3.94c0-7.35,1.34-13.8,4.02-19.37c2.68-5.57,6.51-9.87,11.48-12.91
			c4.97-3.04,10.66-4.56,17.09-4.56c6.32,0,11.96,1.5,16.91,4.51c4.95,3.01,8.8,7.29,11.56,12.84c2.75,5.55,4.14,11.91,4.18,19.09
			V52.61z M268.86,49.49c0-7.41-1.24-13.04-3.71-16.88s-6.02-5.76-10.63-5.76c-4.75,0-8.32,1.9-10.71,5.69
			c-2.39,3.79-3.6,9.34-3.64,16.65v3.43c0,7.35,1.21,12.97,3.64,16.89c2.43,3.91,6.03,5.87,10.81,5.87c4.58,0,8.09-1.93,10.53-5.79
			c2.44-3.86,3.68-9.41,3.71-16.65V49.49z"/>
		<path class="st0" d="M354.84,13.78V62.6c0,5.53-1.18,10.33-3.54,14.38c-2.36,4.05-5.74,7.13-10.14,9.25
			c-4.41,2.12-9.62,3.18-15.63,3.18c-9.09,0-16.24-2.36-21.47-7.07c-5.23-4.71-7.89-11.17-7.99-19.37V13.78h18.09v49.55
			c0.2,8.16,4,12.24,11.37,12.24c3.72,0,6.54-1.02,8.45-3.07c1.91-2.05,2.87-5.38,2.87-9.99V13.78H354.84z"/>
		<path class="st0" d="M412.32,56.71h-28.28v17.83h33.41v13.83h-51.39v-74.6h51.49v13.88h-33.51v15.73h28.28V56.71z"/>
		<path class="st0" d="M463.26,68.55c0-2.63-0.93-4.68-2.79-6.15c-1.86-1.47-5.13-2.99-9.81-4.56c-4.68-1.57-8.51-3.09-11.48-4.56
			c-9.67-4.75-14.5-11.27-14.5-19.57c0-4.13,1.2-7.78,3.61-10.94c2.41-3.16,5.82-5.62,10.22-7.38c4.41-1.76,9.36-2.64,14.86-2.64
			c5.36,0,10.17,0.96,14.42,2.87c4.25,1.91,7.56,4.64,9.91,8.17c2.36,3.54,3.53,7.58,3.53,12.12h-17.93c0-3.04-0.93-5.39-2.79-7.07
			c-1.86-1.67-4.38-2.51-7.56-2.51c-3.21,0-5.75,0.71-7.61,2.13c-1.86,1.42-2.79,3.22-2.79,5.41c0,1.91,1.03,3.65,3.07,5.2
			c2.05,1.55,5.65,3.16,10.81,4.81c5.16,1.66,9.39,3.44,12.71,5.36c8.06,4.65,12.09,11.05,12.09,19.21c0,6.52-2.46,11.65-7.38,15.37
			c-4.92,3.72-11.67,5.58-20.24,5.58c-6.05,0-11.52-1.09-16.42-3.26c-4.9-2.17-8.59-5.14-11.07-8.91
			c-2.48-3.78-3.71-8.12-3.71-13.04h18.04c0,4,1.03,6.94,3.1,8.84c2.07,1.9,5.42,2.85,10.07,2.85c2.97,0,5.32-0.64,7.05-1.92
			C462.39,72.68,463.26,70.87,463.26,68.55z"/>
		<path class="st0" d="M534.58,74.55h31.31v13.83h-49.29v-74.6h17.98V74.55z"/>
		<path class="st0" d="M633.37,52.61c0,7.28-1.35,13.72-4.05,19.32c-2.7,5.6-6.53,9.91-11.5,12.93s-10.63,4.54-16.99,4.54
			c-6.35,0-11.99-1.46-16.91-4.38c-4.92-2.92-8.75-7.1-11.5-12.53c-2.75-5.43-4.19-11.66-4.33-18.7v-4.2
			c0-7.31,1.34-13.76,4.02-19.35s6.52-9.9,11.53-12.93c5.01-3.04,10.7-4.56,17.09-4.56c6.32,0,11.96,1.5,16.91,4.51
			c4.95,3.01,8.8,7.29,11.55,12.84c2.75,5.55,4.14,11.91,4.18,19.09V52.61z M615.08,49.49c0-7.41-1.24-13.04-3.71-16.88
			c-2.48-3.84-6.02-5.76-10.63-5.76c-9.02,0-13.78,6.76-14.3,20.29l-0.05,5.48c0,7.31,1.21,12.93,3.64,16.86
			c2.42,3.93,6.03,5.89,10.81,5.89c4.54,0,8.04-1.93,10.5-5.79c2.46-3.86,3.71-9.41,3.74-16.65V49.49z"/>
		<path class="st0" d="M732.05,52.61c0,6.9-1.14,12.92-3.43,18.06c-2.29,5.14-5.45,9.27-9.48,12.37l12.04,9.53l-11.12,9.43
			L704.02,89.1c-1.5,0.2-3.01,0.31-4.51,0.31c-6.35,0-11.99-1.47-16.91-4.41s-8.75-7.14-11.5-12.61
			c-2.75-5.46-4.18-11.75-4.28-18.85v-3.94c0-7.35,1.34-13.8,4.02-19.37c2.68-5.57,6.51-9.87,11.48-12.91
			c4.97-3.04,10.67-4.56,17.09-4.56c6.32,0,11.96,1.5,16.91,4.51c4.95,3.01,8.8,7.29,11.56,12.84c2.75,5.55,4.14,11.91,4.17,19.09
			V52.61z M713.76,49.49c0-7.41-1.24-13.04-3.71-16.88c-2.48-3.84-6.02-5.76-10.63-5.76c-4.75,0-8.32,1.9-10.71,5.69
			s-3.6,9.34-3.64,16.65v3.43c0,7.35,1.21,12.97,3.64,16.89c2.43,3.91,6.03,5.87,10.81,5.87c4.58,0,8.09-1.93,10.53-5.79
			c2.44-3.86,3.68-9.41,3.71-16.65V49.49z"/>
		<path class="st0" d="M799.74,13.78V62.6c0,5.53-1.18,10.33-3.54,14.38c-2.36,4.05-5.74,7.13-10.14,9.25
			c-4.41,2.12-9.62,3.18-15.63,3.18c-9.09,0-16.24-2.36-21.47-7.07c-5.23-4.71-7.89-11.17-7.99-19.37V13.78h18.09v49.55
			c0.2,8.16,4,12.24,11.37,12.24c3.72,0,6.54-1.02,8.46-3.07c1.91-2.05,2.87-5.38,2.87-9.99V13.78H799.74z"/>
		<path class="st0" d="M857.23,56.71h-28.28v17.83h33.41v13.83h-51.39v-74.6h51.49v13.88h-33.51v15.73h28.28V56.71z"/>
		<path class="st0" d="M895.81,88.38v-74.6h26.8c9.6,0,16.9,1.76,21.91,5.28c5,3.52,7.51,8.63,7.51,15.32
			c0,3.86-0.89,7.16-2.66,9.89c-1.78,2.73-4.39,4.75-7.84,6.05c3.89,1.02,6.88,2.94,8.97,5.74c2.08,2.8,3.13,6.22,3.13,10.25
			c0,7.31-2.31,12.8-6.94,16.47c-4.63,3.67-11.49,5.54-20.57,5.61H895.81z M913.79,44.88h9.38c3.93-0.04,6.73-0.76,8.4-2.16
			c1.67-1.4,2.51-3.48,2.51-6.22c0-3.15-0.9-5.42-2.71-6.81c-1.81-1.39-4.73-2.08-8.76-2.08h-8.81V44.88z M913.79,56.66v17.88h11.78
			c3.25,0,5.74-0.74,7.48-2.23c1.74-1.48,2.62-3.58,2.62-6.28c0-6.22-3.09-9.34-9.27-9.38H913.79z"/>
		<path class="st0" d="M1022.01,13.78V62.6c0,5.53-1.18,10.33-3.54,14.38c-2.36,4.05-5.74,7.13-10.14,9.25
			c-4.41,2.12-9.62,3.18-15.63,3.18c-9.09,0-16.24-2.36-21.47-7.07c-5.23-4.71-7.89-11.17-7.99-19.37V13.78h18.09v49.55
			c0.2,8.16,4,12.24,11.37,12.24c3.72,0,6.54-1.02,8.46-3.07c1.91-2.05,2.87-5.38,2.87-9.99V13.78H1022.01z"/>
		<path class="st0" d="M1071.71,68.55c0-2.63-0.93-4.68-2.79-6.15c-1.86-1.47-5.13-2.99-9.81-4.56c-4.68-1.57-8.51-3.09-11.48-4.56
			c-9.67-4.75-14.5-11.27-14.5-19.57c0-4.13,1.2-7.78,3.61-10.94c2.41-3.16,5.81-5.62,10.22-7.38c4.41-1.76,9.36-2.64,14.86-2.64
			c5.37,0,10.17,0.96,14.43,2.87c4.25,1.91,7.56,4.64,9.91,8.17c2.35,3.54,3.53,7.58,3.53,12.12h-17.93c0-3.04-0.93-5.39-2.79-7.07
			c-1.86-1.67-4.38-2.51-7.56-2.51c-3.21,0-5.75,0.71-7.61,2.13c-1.86,1.42-2.79,3.22-2.79,5.41c0,1.91,1.03,3.65,3.07,5.2
			c2.05,1.55,5.65,3.16,10.81,4.81c5.16,1.66,9.4,3.44,12.71,5.36c8.06,4.65,12.09,11.05,12.09,19.21c0,6.52-2.46,11.65-7.38,15.37
			c-4.92,3.72-11.66,5.58-20.24,5.58c-6.05,0-11.52-1.09-16.42-3.26c-4.9-2.17-8.59-5.14-11.06-8.91
			c-2.48-3.78-3.71-8.12-3.71-13.04h18.04c0,4,1.03,6.94,3.1,8.84c2.06,1.9,5.42,2.85,10.07,2.85c2.97,0,5.32-0.64,7.04-1.92
			C1070.84,72.68,1071.71,70.87,1071.71,68.55z"/>
		<path class="st0" d="M1162.2,52.61c0,6.9-1.14,12.92-3.43,18.06c-2.29,5.14-5.45,9.27-9.48,12.37l12.04,9.53l-11.12,9.43
			l-16.04-12.91c-1.5,0.2-3,0.31-4.51,0.31c-6.35,0-11.99-1.47-16.91-4.41s-8.76-7.14-11.5-12.61c-2.75-5.46-4.18-11.75-4.28-18.85
			v-3.94c0-7.35,1.34-13.8,4.02-19.37c2.68-5.57,6.51-9.87,11.48-12.91c4.97-3.04,10.67-4.56,17.09-4.56
			c6.32,0,11.95,1.5,16.91,4.51c4.95,3.01,8.8,7.29,11.56,12.84c2.75,5.55,4.14,11.91,4.17,19.09V52.61z M1143.91,49.49
			c0-7.41-1.24-13.04-3.71-16.88c-2.48-3.84-6.02-5.76-10.63-5.76c-4.75,0-8.32,1.9-10.71,5.69c-2.39,3.79-3.6,9.34-3.64,16.65v3.43
			c0,7.35,1.21,12.97,3.64,16.89c2.43,3.91,6.03,5.87,10.81,5.87c4.58,0,8.09-1.93,10.53-5.79c2.44-3.86,3.68-9.41,3.71-16.65V49.49
			z"/>
		<path class="st0" d="M1229.88,13.78V62.6c0,5.53-1.18,10.33-3.54,14.38c-2.35,4.05-5.74,7.13-10.14,9.25
			c-4.41,2.12-9.62,3.18-15.63,3.18c-9.09,0-16.24-2.36-21.47-7.07c-5.22-4.71-7.89-11.17-7.99-19.37V13.78h18.09v49.55
			c0.2,8.16,4,12.24,11.37,12.24c3.72,0,6.54-1.02,8.45-3.07c1.91-2.05,2.87-5.38,2.87-9.99V13.78H1229.88z"/>
		<path class="st0" d="M1287.37,56.71h-28.28v17.83h33.41v13.83h-51.39v-74.6h51.49v13.88h-33.51v15.73h28.28V56.71z"/>
		<path class="st0" d="M1338.3,68.55c0-2.63-0.93-4.68-2.79-6.15c-1.86-1.47-5.13-2.99-9.81-4.56c-4.68-1.57-8.51-3.09-11.48-4.56
			c-9.67-4.75-14.5-11.27-14.5-19.57c0-4.13,1.2-7.78,3.61-10.94c2.41-3.16,5.82-5.62,10.22-7.38c4.41-1.76,9.36-2.64,14.86-2.64
			c5.36,0,10.17,0.96,14.42,2.87c4.25,1.91,7.56,4.64,9.91,8.17c2.36,3.54,3.54,7.58,3.54,12.12h-17.93c0-3.04-0.93-5.39-2.79-7.07
			c-1.86-1.67-4.38-2.51-7.56-2.51c-3.21,0-5.75,0.71-7.61,2.13c-1.86,1.42-2.79,3.22-2.79,5.41c0,1.91,1.03,3.65,3.07,5.2
			c2.05,1.55,5.66,3.16,10.81,4.81c5.16,1.66,9.39,3.44,12.71,5.36c8.06,4.65,12.09,11.05,12.09,19.21c0,6.52-2.46,11.65-7.38,15.37
			c-4.92,3.72-11.67,5.58-20.24,5.58c-6.04,0-11.52-1.09-16.42-3.26c-4.9-2.17-8.59-5.14-11.07-8.91
			c-2.48-3.78-3.71-8.12-3.71-13.04h18.04c0,4,1.03,6.94,3.1,8.84c2.07,1.9,5.42,2.85,10.07,2.85c2.97,0,5.32-0.64,7.05-1.92
			C1337.44,72.68,1338.3,70.87,1338.3,68.55z"/>
		<path class="st0" d="M1370.79,108.46l-8.71-4.1l1.74-3.49c2.39-4.44,3.64-8.68,3.74-12.71V75.36h13.83l-0.05,11.12
			c-0.03,3.93-1.04,7.92-3.02,11.99C1376.34,102.54,1373.83,105.87,1370.79,108.46z"/>
		<path class="st0" d="M198.11,258.33h-38.5l6.42-61.75h25.67L198.11,258.33z M192.4,161.93c3.52,3.33,5.28,7.37,5.28,12.12
			c0,4.85-1.76,8.86-5.28,12.05s-8.03,4.78-13.55,4.78c-5.51,0-10.03-1.59-13.55-4.78c-3.52-3.19-5.28-7.2-5.28-12.05
			c0-4.75,1.76-8.79,5.28-12.12c3.52-3.33,8.03-4.99,13.55-4.99C184.37,156.93,188.89,158.6,192.4,161.93z"/>
		<path class="st0" d="M209.37,136.54h33.65v73.73h45.06v26.1h-78.72V136.54z"/>
		<path class="st0" d="M319.32,231.95c-8.56-4.47-15.26-10.67-20.11-18.61c-4.85-7.94-7.27-16.9-7.27-26.88
			c0-9.98,2.42-18.95,7.27-26.88c4.85-7.94,11.55-14.14,20.11-18.61c8.56-4.47,18.2-6.7,28.95-6.7c10.74,0,20.39,2.24,28.95,6.7
			c8.56,4.47,15.26,10.67,20.11,18.61c4.85,7.94,7.27,16.9,7.27,26.88c0,9.98-2.42,18.94-7.27,26.88
			c-4.85,7.94-11.55,14.14-20.11,18.61c-8.56,4.47-18.21,6.7-28.95,6.7C337.53,238.65,327.88,236.42,319.32,231.95z M359.61,208.35
			c3.37-2.05,6.06-4.94,8.06-8.7c2-3.75,2.99-8.15,2.99-13.19c0-5.04-1-9.43-2.99-13.19c-2-3.75-4.68-6.65-8.06-8.7
			c-3.38-2.04-7.16-3.06-11.34-3.06c-4.18,0-7.96,1.02-11.34,3.06c-3.38,2.05-6.06,4.95-8.06,8.7c-2,3.76-2.99,8.15-2.99,13.19
			c0,5.04,1,9.44,2.99,13.19c2,3.76,4.68,6.66,8.06,8.7c3.37,2.05,7.15,3.06,11.34,3.06C352.45,211.41,356.23,210.39,359.61,208.35z
			"/>
		<path class="st0" d="M481.32,162.64h-29.23v-26.1h92.12v26.1h-29.23v73.73h-33.65V162.64z"/>
		<path class="st0" d="M635.9,210.99v25.38h-83v-99.82h81.14v25.38h-48.06v11.69h42.21v24.25h-42.21v13.12H635.9z"/>
		<path class="st0" d="M747.27,136.54v99.82h-27.66l-37.93-45.35v45.35h-32.8v-99.82h27.67l37.93,45.35v-45.35H747.27z"/>
		<path class="st0" d="M846.52,210.99v25.38h-82.99v-99.82h81.14v25.38h-48.06v11.69h42.21v24.25h-42.21v13.12H846.52z"/>
		<path class="st0" d="M948.63,236.37l-0.28-45.49l-21.68,36.51h-14.83l-21.67-34.94v43.92H859.5v-99.82h27.67l32.51,53.19
			l31.66-53.19H979l0.29,99.82H948.63z"/>
		<path class="st0" d="M1018.93,231.95c-8.55-4.47-15.26-10.67-20.11-18.61c-4.85-7.94-7.27-16.9-7.27-26.88
			c0-9.98,2.42-18.95,7.27-26.88c4.85-7.94,11.55-14.14,20.11-18.61c8.56-4.47,18.2-6.7,28.95-6.7c10.74,0,20.39,2.24,28.95,6.7
			c8.56,4.47,15.26,10.67,20.11,18.61c4.85,7.94,7.27,16.9,7.27,26.88c0,9.98-2.42,18.94-7.27,26.88
			c-4.85,7.94-11.55,14.14-20.11,18.61c-8.55,4.47-18.21,6.7-28.95,6.7C1037.14,238.65,1027.49,236.42,1018.93,231.95z
			 M1059.22,208.35c3.37-2.05,6.06-4.94,8.06-8.7c2-3.75,2.99-8.15,2.99-13.19c0-5.04-1-9.43-2.99-13.19
			c-1.99-3.75-4.68-6.65-8.06-8.7c-3.37-2.04-7.16-3.06-11.34-3.06c-4.19,0-7.96,1.02-11.34,3.06c-3.37,2.05-6.06,4.95-8.06,8.7
			c-1.99,3.76-2.99,8.15-2.99,13.19c0,5.04,1,9.44,2.99,13.19c2,3.76,4.68,6.66,8.06,8.7c3.37,2.05,7.15,3.06,11.34,3.06
			C1052.06,211.41,1055.85,210.39,1059.22,208.35z"/>
		<path class="st0" d="M1129.52,235.87c-7.84-1.85-14.29-4.35-19.32-7.49l10.84-24.53c4.75,2.76,10.08,4.97,15.97,6.63
			c5.89,1.66,11.55,2.49,16.97,2.49c4.66,0,7.99-0.45,9.98-1.35c2-0.9,2.99-2.26,2.99-4.07c0-2.09-1.31-3.66-3.92-4.71
			c-2.62-1.04-6.91-2.19-12.9-3.42c-7.7-1.62-14.12-3.35-19.25-5.21c-5.13-1.85-9.6-4.89-13.41-9.12c-3.8-4.23-5.7-9.96-5.7-17.19
			c0-6.28,1.76-11.98,5.28-17.11c3.52-5.14,8.77-9.18,15.76-12.12s15.47-4.42,25.46-4.42c6.84,0,13.57,0.74,20.18,2.21
			c6.6,1.48,12.43,3.64,17.47,6.49l-10.12,24.39c-9.79-4.94-19.06-7.42-27.81-7.42c-8.65,0-12.98,2.09-12.98,6.28
			c0,1.99,1.28,3.49,3.85,4.49c2.56,1,6.8,2.07,12.69,3.21c7.6,1.42,14.02,3.06,19.25,4.92s9.77,4.87,13.62,9.05
			c3.85,4.19,5.78,9.89,5.78,17.11c0,6.27-1.76,11.96-5.28,17.04s-8.77,9.12-15.76,12.12c-6.99,2.99-15.47,4.49-25.45,4.49
			C1145.42,238.65,1137.37,237.72,1129.52,235.87z"/>
		<path class="st0" d="M1205.17,136.54h38.5l-6.42,61.61h-25.67L1205.17,136.54z M1210.88,232.8c-3.52-3.33-5.28-7.37-5.28-12.12
			c0-4.85,1.76-8.86,5.28-12.05c3.52-3.18,8.04-4.78,13.55-4.78c5.51,0,10.03,1.59,13.55,4.78c3.52,3.19,5.28,7.2,5.28,12.05
			c0,4.76-1.76,8.8-5.28,12.12c-3.52,3.33-8.03,4.99-13.55,4.99C1218.91,237.8,1214.39,236.13,1210.88,232.8z"/>
	</g>
</g>
</svg>
